# xmcd
#
# Track frame offsets:
#	150
#	23119
#	39459
#	51206
#	64523
#	87868
#	103873
#	122289
#	137643
#	159487
#	180879
#	196454
#	216649
#	234948
#
# Disc length: 3423 seconds
#
# Revision: 0
# Processed by: cddbd v1.5.1PL2 Copyright (c) Steve Scherf et al.
# Submitted via: dBpowerAMP V4.0
#
DISCID=b50d5d0e
DTITLE=David Rodriguez - Proud Heart
DYEAR=2006
DGENRE=
TTITLE0=Out of Range
TTITLE1=Streets of Old Milan
TTITLE2=Sheffield Hotel
TTITLE3=Beautiful Rider
TTITLE4=Proud Heart
TTITLE5=Two Truths
TTITLE6=Chitarrista Cieco
TTITLE7=Pretty Brechje
TTITLE8=Simple Things
TTITLE9=When Icarus Fell
TTITLE10=Rice's Crossing
TTITLE11=Run With Me
TTITLE12=The Other Texas
TTITLE13=Michoacan
EXTD=
EXTT0=
EXTT1=
EXTT2=
EXTT3=
EXTT4=
EXTT5=
EXTT6=
EXTT7=
EXTT8=
EXTT9=
EXTT10=
EXTT11=
EXTT12=
EXTT13=
PLAYORDER=
